<?xml version="1.0" encoding="UTF-8" standalone="no"?>
<svg
   xmlns:dc="http://purl.org/dc/elements/1.1/"
   xmlns:cc="http://creativecommons.org/ns#"
   xmlns:rdf="http://www.w3.org/1999/02/22-rdf-syntax-ns#"
   xmlns:svg="http://www.w3.org/2000/svg"
   xmlns="http://www.w3.org/2000/svg"
   xmlns:sodipodi="http://sodipodi.sourceforge.net/DTD/sodipodi-0.dtd"
   xmlns:inkscape="http://www.inkscape.org/namespaces/inkscape"
   width="256"
   height="256"
   viewBox="0 0 256 256"
   fill="none"
   version="1.1"
   id="svg8"
   sodipodi:docname="icon.svg"
   inkscape:version="0.92.4 (5da689c313, 2019-01-14)">
  <metadata
     id="metadata14">
    <rdf:RDF>
      <cc:Work
         rdf:about="">
        <dc:format>image/svg+xml</dc:format>
        <dc:type
           rdf:resource="http://purl.org/dc/dcmitype/StillImage" />
        <dc:title></dc:title>
      </cc:Work>
    </rdf:RDF>
  </metadata>
  <defs
     id="defs12">
    <style
       id="style4735">.cls-1{fill:#ffb74d;}.cls-2{fill:#ef9014;}</style>
  </defs>
  <sodipodi:namedview
     pagecolor="#ffffff"
     bordercolor="#666666"
     borderopacity="1"
     objecttolerance="10"
     gridtolerance="10"
     guidetolerance="10"
     inkscape:pageopacity="0"
     inkscape:pageshadow="2"
     inkscape:window-width="1920"
     inkscape:window-height="1027"
     id="namedview10"
     showgrid="false"
     inkscape:pagecheckerboard="true"
     inkscape:zoom="1.305"
     inkscape:cx="332.89223"
     inkscape:cy="59.100176"
     inkscape:window-x="-8"
     inkscape:window-y="-8"
     inkscape:window-maximized="1"
     inkscape:current-layer="svg8" />
  <rect
     width="256"
     height="256"
     fill="#223159"
     id="rect2" />
  <path
     fill-rule="evenodd"
     clip-rule="evenodd"
     d="M181.727 54.0207L182.689 73.4266C198.422 90.8068 204.631 115.422 196.8 138.555C185.11 173.088 146.561 191.242 110.7 179.102C74.8379 166.962 55.2437 129.126 66.9341 94.5919C74.7915 71.3811 94.7825 55.5702 117.936 51.3835L130.445 36.6035C91.4172 35.5469 54.5968 59.7719 41.4226 98.6879C25.236 146.503 50.876 198.387 98.6913 214.574C146.507 230.761 198.39 205.121 214.577 157.305C227.73 118.452 213.266 76.9115 181.727 54.0207Z"
     fill="white"
     id="path4" />
  <path
     fill-rule="evenodd"
     clip-rule="evenodd"
     d="M159.314 111.284L158.651 84.1549L158.12 68.5444L157.76 55.0202C157.76 55.0202 157.835 48.4988 157.608 46.9665C157.56 46.6439 157.459 46.3813 157.338 46.1524C157.323 46.1202 157.309 46.088 157.292 46.0566C157.275 46.0273 157.258 46.0003 157.24 45.9728C156.99 45.5424 156.597 45.1928 156.088 45.0205C155.568 44.8442 155.03 44.8878 154.562 45.0896C154.552 45.0933 154.543 45.0966 154.533 45.1006C154.478 45.1255 154.425 45.1536 154.371 45.1833C154.15 45.2912 153.924 45.4309 153.704 45.6448C152.592 46.7237 148.69 51.9497 148.69 51.9497L140.19 62.4742L130.285 74.552L113.28 95.6997C113.28 95.6997 105.476 105.439 107.2 117.427C108.925 129.415 117.837 135.255 124.751 137.596C131.666 139.937 142.293 140.711 150.945 132.236C159.596 123.76 159.314 111.284 159.314 111.284Z"
     fill="white"
     id="path6" />
  <g
     data-name="Layer 2"
     id="Layer_2"
     transform="matrix(2,0,0,2,112,112)">
    <g
       data-name="Layer 1"
       id="Layer_1-2">
      <path
         id="path4741"
         d="M 44,0 A 20,20 0 1 0 64,20 20,20 0 0 0 44,0 Z m 4,20 a 4,4 0 1 1 4,-4 4,4 0 0 1 -4,4 z"
         class="cls-1"
         inkscape:connector-curvature="0"
         style="fill:#ffb74d" />
      <polygon
         id="polygon4743"
         points="20,50 20,54 16,54 16,58 10,58 10,64 0,64 0,54 30,24 40,34 24,50 "
         class="cls-1"
         style="fill:#ffb74d" />
      <polygon
         id="polygon4745"
         points="20,54 16,54 16,58 10,58 10,64 0,64 24,40 29,45 24,50 20,50 "
         class="cls-2"
         style="fill:#ef9014" />
      <path
         id="path4747"
         d="M 44,4 A 16,16 0 1 0 60,20 16,16 0 0 0 44,4 Z m 0,30 A 14,14 0 1 1 58,20 14,14 0 0 1 44,34 Z"
         class="cls-2"
         inkscape:connector-curvature="0"
         style="fill:#ef9014" />
      <polygon
         id="polygon4749"
         points="24,34 24,36 4,56 4,54 "
         class="cls-2"
         style="fill:#ef9014" />
    </g>
  </g>
</svg>
